<?xml version="1.0" encoding="UTF-8"?>
<svg xmlns="http://www.w3.org/2000/svg" width="960" height="190" viewBox="0 0 960 190">
  <defs>
    <linearGradient id="fb" x1="0" y1="0" x2="0" y2="1">
      <stop offset="0%" stop-color="#f7f3eb"/><stop offset="100%" stop-color="#efe9de"/>
    </linearGradient>
    <filter id="fh"><feDropShadow dx="0" dy="1" stdDeviation="2" flood-opacity="0.06"/></filter>
    <marker id="m" markerWidth="7" markerHeight="7" refX="6" refY="3.5" orient="auto"><polygon points="0 0,7 3.5,0 7" fill="#9d9690"/></marker>
  </defs>
  <rect width="100%" height="100%" fill="url(#fb)"/>
  <text x="480" y="26" text-anchor="middle" font-family="Segoe UI, Arial, sans-serif" font-size="14" font-weight="600" fill="#1a1714">Core data flow (project plan)</text>

  <rect x="24" y="48" width="168" height="68" rx="8" fill="#fff" stroke="#d4cec9" filter="url(#fh)"/>
  <text x="108" y="78" text-anchor="middle" font-size="11" font-weight="600">1 Config</text>
  <text x="108" y="96" text-anchor="middle" font-size="9" fill="#6b6460">greenhouse + plot CRUD</text>

  <rect x="210" y="48" width="168" height="68" rx="8" fill="#fff" stroke="#d4cec9" filter="url(#fh)"/>
  <text x="294" y="78" text-anchor="middle" font-size="11" font-weight="600">2 Devices</text>
  <text x="294" y="96" text-anchor="middle" font-size="9" fill="#6b6460">sensor register, online</text>

  <rect x="396" y="48" width="168" height="68" rx="8" fill="#fff" stroke="#c4502a" stroke-width="1.2" filter="url(#fh)"/>
  <text x="480" y="78" text-anchor="middle" font-size="11" font-weight="600">3 MQTT ingest</text>
  <text x="480" y="96" text-anchor="middle" font-size="9" fill="#6b6460">real-time to DB</text>

  <rect x="582" y="48" width="168" height="68" rx="8" fill="#1a1714" stroke="#1a1714" filter="url(#fh)"/>
  <text x="666" y="78" text-anchor="middle" font-size="11" font-weight="600" fill="#f7f3eb">4 Visualize</text>
  <text x="666" y="96" text-anchor="middle" font-size="9" fill="#b8a98c">React + ECharts, Taro mini</text>

  <rect x="768" y="48" width="168" height="68" rx="8" fill="#faf8f5" stroke="#d4cec9" filter="url(#fh)"/>
  <text x="852" y="78" text-anchor="middle" font-size="11" font-weight="600">5 Query / export</text>
  <text x="852" y="96" text-anchor="middle" font-size="9" fill="#6b6460">history, reports</text>

  <line x1="192" y1="82" x2="208" y2="82" stroke="#9d9690" stroke-width="2" marker-end="url(#m)"/>
  <line x1="378" y1="82" x2="394" y2="82" stroke="#9d9690" stroke-width="2" marker-end="url(#m)"/>
  <line x1="564" y1="82" x2="580" y2="82" stroke="#9d9690" stroke-width="2" marker-end="url(#m)"/>
  <line x1="750" y1="82" x2="766" y2="82" stroke="#9d9690" stroke-width="2" marker-end="url(#m)"/>

  <text x="480" y="158" text-anchor="middle" font-size="9" fill="#8a827a">Aligns with plan: CRUD, MQTT pipeline, dashboard, export.</text>
</svg>
